<svg xmlns="http://www.w3.org/2000/svg" viewBox="0 0 64 64">
  <g transform="translate(0 -1.6)">
    <path fill="#d989b3" d="M27.9 4.8h8.2l1.6 7.3c1.9.5 3.8 1.3 5.5 2.3l6.3-4.1 5.8 5.8-4.1 6.3c1 1.7 1.8 3.6 2.3 5.5l7.3 1.6v8.2l-7.3 1.6c-.5 1.9-1.3 3.8-2.3 5.5l4.1 6.3-5.8 5.8-6.3-4.1c-1.7 1-3.6 1.8-5.5 2.3l-1.6 7.3h-8.2l-1.6-7.3c-1.9-.5-3.8-1.3-5.5-2.3l-6.3 4.1-5.8-5.8 4.1-6.3c-1-1.7-1.8-3.6-2.3-5.5l-7.3-1.6v-8.2l7.3-1.6c.5-1.9 1.3-3.8 2.3-5.5l-4.1-6.3 5.8-5.8 6.3 4.1c1.7-1 3.6-1.8 5.5-2.3z"/>
    <circle cx="32" cy="33.6" r="9.1" fill="#f7f7f8"/>
    <circle cx="32" cy="33.6" r="4.1" fill="#d989b3" opacity=".18"/>
  </g>
</svg>
